<svg width="30" height="30" viewBox="0 0 30 30" fill="none" xmlns="http://www.w3.org/2000/svg">
<path d="M26.9679 0.959717H2.23174C1.04686 0.959717 0.0799561 1.89813 0.0799561 3.04413V27.9153C0.0799561 29.0613 1.04658 29.9997 2.23203 29.9997H26.9682C28.1536 29.9997 29.1202 29.0613 29.1202 27.9153V3.04413C29.12 1.89813 28.1542 0.959717 26.9679 0.959717ZM8.88539 25.2637H4.49395V12.1566H8.88539V25.2637ZM6.68853 10.3671H6.65515C5.19494 10.3671 4.24031 9.35267 4.24031 8.09834C4.24031 6.81082 5.22861 5.82959 6.72248 5.82959C8.21635 5.82959 9.13732 6.81196 9.1707 8.09834C9.17099 9.36288 8.22576 10.3665 6.6891 10.3665L6.68853 10.3671ZM24.6943 25.2427H20.3028V18.2362C20.3028 16.4797 19.6769 15.2789 18.0851 15.2789C16.8771 15.2789 16.1519 16.0971 15.8341 16.8716C15.7251 17.1663 15.6914 17.5477 15.6914 17.9407V25.2637H11.3002C11.3002 25.2637 11.3661 13.3899 11.3002 12.1464H15.6917V13.994C16.28 13.0916 17.3279 11.8304 19.6435 11.8304C22.5314 11.8304 24.6934 13.6973 24.6934 17.7238L24.6943 25.2427Z" fill="#898F9C"/>
</svg>
