<svg width="30" height="24" viewBox="0 0 30 24" fill="none" xmlns="http://www.w3.org/2000/svg">
<path d="M26.0676 6.35162C26.0847 6.60147 26.0847 6.8541 26.0847 7.10673C26.0847 14.8133 20.0917 23.6997 9.13261 23.6997V23.6942C5.89497 23.6992 2.72437 22.7913 0 21.0791C3.15049 21.4487 6.32204 20.579 8.81779 18.661C7.57454 18.6383 6.36966 18.2356 5.37184 17.5093C4.37402 16.7831 3.63322 15.7695 3.25314 14.6106C4.14541 14.7789 5.06521 14.7447 5.94187 14.5107C4.59366 14.2442 3.38116 13.5294 2.51008 12.4875C1.639 11.4457 1.16301 10.1409 1.16285 8.79462V8.71967C1.99099 9.17163 2.91802 9.42205 3.86576 9.44979C1.24793 7.73691 0.44245 4.32781 2.02222 1.66271C3.51811 3.46401 5.38419 4.93735 7.49939 5.98713C9.61458 7.03691 11.9316 7.63969 14.3002 7.75634C14.0641 6.76115 14.0992 5.72273 14.4018 4.74495C14.7044 3.76717 15.264 2.8843 16.0246 2.18463C18.424 -0.0224044 22.1991 0.0886414 24.4538 2.43726C25.788 2.17902 27.0675 1.70023 28.2374 1.02142C27.7917 2.37104 26.8617 3.51699 25.6195 4.2473C26.8003 4.11042 27.9533 3.80066 29.04 3.3284C28.2421 4.50215 27.2353 5.52613 26.0676 6.35162Z" fill="#898F9C"/>
</svg>
